<?xml version="1.0" encoding="utf-8"?>
<!-- Generator: Adobe Illustrator 16.0.0, SVG Export Plug-In . SVG Version: 6.00 Build 0)  -->
<!DOCTYPE svg PUBLIC "-//W3C//DTD SVG 1.1//EN" "http://www.w3.org/Graphics/SVG/1.1/DTD/svg11.dtd">
<svg version="1.1" id="Layer_1" xmlns="http://www.w3.org/2000/svg" xmlns:xlink="http://www.w3.org/1999/xlink" x="0px" y="0px"
	 width="792px" height="612px" viewBox="0 0 792 612" enable-background="new 0 0 792 612" xml:space="preserve">
<path fill="#FFFFFF" stroke="#000000" stroke-miterlimit="10" d="M767,427"/>
<path fill="#FFFFFF" stroke="#000000" stroke-miterlimit="10" d="M18,515"/>
<path fill="none" stroke="#000000" stroke-miterlimit="10" d="M23,506c0,0,131-210,101-283s-73.096,83.112-82,120
	c-7,29-26.654,188.692,54,117c27-24,65.751-77.792,40-92c-29-16-43,19-47,27s49-95,120-101c0,0-61,9-45,60s67,43,86,27
	s39.291-96.582-34-89c-29,3,4,17,18,21s46-4,82-53s-115,146,23,89c0,0,88-25-7-98c0,0-1.229,100.055,104,75
	c42-10,74.018-55.203,71-191c-3-135-25-6-9,136c1.684,14.939,13.277,50.819,54,61c64,16,78.495-37.234,97-102c8-28,116,107,33,131
	c-24.035,6.95-58.993-3.488-73-28c-16-28,62.192,37.431,121,12c37-16,141-223-109-208c-130.23,7.814-212,17-255,4"/>
</svg>
