<?xml version="1.0" encoding="utf-8"?>
<!-- Generator: Adobe Illustrator 16.0.0, SVG Export Plug-In . SVG Version: 6.00 Build 0)  -->
<!DOCTYPE svg PUBLIC "-//W3C//DTD SVG 1.1//EN" "http://www.w3.org/Graphics/SVG/1.1/DTD/svg11.dtd">
<svg version="1.1" id="Layer_1" xmlns="http://www.w3.org/2000/svg" xmlns:xlink="http://www.w3.org/1999/xlink" x="0px" y="0px"
	 width="792px" height="612px" viewBox="0 0 792 612" enable-background="new 0 0 792 612" xml:space="preserve">
<path fill="#FFFFFF" stroke="#000000" stroke-miterlimit="10" d="M-23,200"/>
<path fill="none" stroke="#000000" stroke-miterlimit="10" d="M-62,485c20-52-8-139,69-157s143,64,172-18s-6-223,62-182
	s190,196,183,90S381,10,444,33s238,139,220,33s34-143,66-122s24,16,32,21"/>
<path fill="none" stroke="#000000" stroke-miterlimit="10" d="M-103,412c20-52-8-139,69-157s143,64,172-18s-6-223,62-182
	s190,196,183,90S340-63,403-40S641,99,623-7s34-143,66-122s24,16,32,21"/>
<path fill="none" stroke="#000000" stroke-miterlimit="10" d="M-133,346c20-52-8-139,69-157s143,64,172-18s-6-223,62-182
	s190,196,183,90s-43-208,20-185S611,33,593-73s34-143,66-122s24,16,32,21"/>
<path fill="none" stroke="#000000" stroke-miterlimit="10" d="M-170,280c20-52-8-139,69-157s143,64,172-18s-6-223,62-182
	s190,196,183,90s-43-208,20-185s238,139,220,33s34-143,66-122s24,16,32,21"/>
<path fill="none" stroke="#000000" stroke-miterlimit="10" d="M-192,229c20-52-8-139,69-157S20,136,49,54s-6-223,62-182
	S301,68,294-38s-43-208,20-185s238,139,220,33s34-143,66-122s24,16,32,21"/>
<path fill="none" stroke="#000000" stroke-miterlimit="10" d="M101,811c20-52-8-139,69-157s143,64,172-18s-6-223,62-182
	s190,196,183,90s-43-208,20-185s238,139,220,33s34-143,66-122s24,16,32,21"/>
<path fill="none" stroke="#000000" stroke-miterlimit="10" d="M60,738c20-52-8-139,69-157s143,64,172-18s-6-223,62-182
	s190,196,183,90s-43-208,20-185s238,139,220,33s34-143,66-122s24,16,32,21"/>
<path fill="none" stroke="#000000" stroke-miterlimit="10" d="M30,672c20-52-8-139,69-157s143,64,172-18s-6-223,62-182
	s190,196,183,90s-43-208,20-185s238,139,220,33s34-143,66-122s24,16,32,21"/>
<path fill="none" stroke="#000000" stroke-miterlimit="10" d="M-7,606c20-52-8-139,69-157s143,64,172-18s-6-223,62-182
	s190,196,183,90s-43-208,20-185s238,139,220,33s34-143,66-122s24,16,32,21"/>
<path fill="none" stroke="#000000" stroke-miterlimit="10" d="M-29,555c20-52-8-139,69-157s143,64,172-18s-6-223,62-182
	s190,196,183,90s-43-208,20-185s238,139,220,33S731-7,763,14s24,16,32,21"/>
<path fill="none" stroke="#000000" stroke-miterlimit="10" d="M212,1026c20-52-8-139,69-157s143,64,172-18s-6-223,62-182
	s190,196,183,90s-43-208,20-185s238,139,220,33s34-143,66-122s24,16,32,21"/>
<path fill="none" stroke="#000000" stroke-miterlimit="10" d="M171,953c20-52-8-139,69-157s143,64,172-18s-6-223,62-182
	s190,196,183,90s-43-208,20-185s238,139,220,33s34-143,66-122s24,16,32,21"/>
<path fill="none" stroke="#000000" stroke-miterlimit="10" d="M141,887c20-52-8-139,69-157s143,64,172-18s-6-223,62-182
	s190,196,183,90s-43-208,20-185s238,139,220,33s34-143,66-122s24,16,32,21"/>
</svg>
