<?xml version="1.0" encoding="utf-8"?>
<!-- Generator: Adobe Illustrator 16.0.0, SVG Export Plug-In . SVG Version: 6.00 Build 0)  -->
<!DOCTYPE svg PUBLIC "-//W3C//DTD SVG 1.1//EN" "http://www.w3.org/Graphics/SVG/1.1/DTD/svg11.dtd">
<svg version="1.1" id="Layer_1" xmlns="http://www.w3.org/2000/svg" xmlns:xlink="http://www.w3.org/1999/xlink" x="0px" y="0px"
	 width="792px" height="612px" viewBox="0 0 792 612" enable-background="new 0 0 792 612" xml:space="preserve">
<path fill="none" stroke="#000000" stroke-miterlimit="10" d="M333,216"/>
<path fill="none" stroke="#000000" stroke-miterlimit="10" d="M360,216"/>
<polyline fill="none" stroke="#000000" stroke-miterlimit="10" points="198,36 198,405 567,405 567,108 252,108 252,351 513,351 
	513,162 306,162 306,297 459,297 459,216 360,216 360,243 432,243 432,270 333,270 333,189 486,189 486,324 279,324 279,135 
	540,135 540,378 225,378 225,81 594,81 594,432 171,432 171,36 "/>
</svg>
